<?xml version="1.0" standalone="no"?>
<!DOCTYPE svg PUBLIC "-//W3C//DTD SVG 20010904//EN"
 "http://www.w3.org/TR/2001/REC-SVG-20010904/DTD/svg10.dtd">
<svg version="1.0" xmlns="http://www.w3.org/2000/svg"
 width="270.000000pt" height="270.000000pt" viewBox="0 0 270.000000 270.000000"
 preserveAspectRatio="xMidYMid meet">
<metadata>
Created by potrace 1.11, written by Peter Selinger 2001-2013
</metadata>
<g transform="translate(0.000000,270.000000) scale(0.100000,-0.100000)"
fill="#000000" stroke="none">
<path d="M0 1350 l0 -1350 1350 0 1350 0 0 1350 0 1350 -1350 0 -1350 0 0
-1350z m2060 622 c181 -60 271 -224 210 -386 -26 -67 -87 -134 -150 -163 -22
-10 -40 -20 -40 -23 0 -4 17 -12 38 -19 20 -8 58 -29 84 -48 198 -144 160
-465 -69 -573 -99 -47 -156 -55 -373 -55 -113 0 -213 3 -222 7 -17 7 -18 47
-18 633 0 512 2 627 13 631 38 14 159 22 302 20 130 -3 172 -7 225 -24z
m-1108 -149 c53 -159 247 -726 337 -987 23 -66 41 -121 41 -123 0 -1 -40 -3
-88 -3 l-89 0 -15 37 c-8 21 -39 111 -69 201 l-54 162 -225 0 -225 0 -66 -197
-65 -198 -87 -3 c-53 -2 -87 1 -87 7 0 6 9 34 20 63 10 29 96 280 191 558 94
278 182 538 196 578 l25 72 101 0 102 0 57 -167z"/>
<path d="M1713 1864 c-23 -5 -23 -6 -23 -211 l0 -206 123 5 c105 4 132 9 179
31 164 74 168 289 8 360 -35 16 -70 21 -155 23 -60 1 -120 0 -132 -2z"/>
<path d="M1690 1080 l0 -239 37 -7 c53 -10 210 3 264 21 64 22 124 76 145 130
26 70 16 175 -23 223 -68 84 -144 112 -310 112 l-113 0 0 -240z"/>
<path d="M765 1757 c-10 -40 -51 -171 -92 -292 -40 -120 -73 -220 -73 -222 0
-2 86 -3 191 -3 178 0 191 1 184 18 -23 56 -156 462 -166 508 -7 30 -15 57
-19 59 -3 2 -15 -28 -25 -68z"/>
</g>
</svg>
